<?xml version="1.0" encoding="UTF-8" standalone="no"?>
<svg xmlns="http://www.w3.org/2000/svg" width="1024" height="1024" viewBox="0 0 1024 1024" version="1.1">
  <circle id="background" cx="512" cy="512" r="512" fill="#000000"/>
  <path
    id="stormtrooper"
    d="m 355.90289,87.446435 -64.92451,64.951795 -64.92448,64.94838 v 35.09524 c 0,19.30125 0.65833,35.75019 1.46315,36.555 0.80482,0.80482 129.235,1.21522 285.40041,0.91063 l 283.93726,-0.55251 0.6037,-35.94791 0.6002,-35.9445 -64.97901,-65.00977 -64.98249,-65.006365 H 512.00001 Z m -128.7576,254.295615 0.60709,16.37095 c 0.33457,9.00401 1.10686,33.06934 1.71555,53.47847 l 1.10844,37.1075 33.18188,33.28763 33.1853,33.28762 h 17.33958 17.33958 l 17.8887,-17.46238 c 17.36904,-16.95348 18.19807,-17.46235 28.44453,-17.46235 h 10.55586 l 36.24122,-36.01611 36.2412,-36.01611 h 51.00579 51.00576 l 36.24122,36.01611 36.24463,36.01611 h 10.55246 c 10.24644,0 11.07551,0.50887 28.44452,17.46235 l 17.88871,17.46238 h 17.3396 17.3429 l 33.1819,-33.28762 33.18191,-33.28763 1.1085,-37.1075 c 0.6086,-20.40913 1.3809,-44.47445 1.7155,-53.47847 l 0.6071,-16.37095 h -284.8547 z m 26.84837,20.73653 h 258.00635 258.0063 l 7.4215,7.4215 c 7.27121,7.2712 7.42151,7.79337 7.42151,25.89681 0,15.17248 -0.7809,19.4706 -4.3656,24.0278 -2.8173,3.58172 -4.3655,8.85559 -4.3655,14.87029 0,8.66755 -1.1172,10.43833 -15.9822,25.30336 -14.7513,14.75127 -16.68911,15.98557 -25.0987,15.98557 -7.348,0 -10.74901,-1.47913 -17.5681,-7.63978 -6.8031,-6.14615 -10.2273,-7.63978 -17.5169,-7.63978 -7.5374,0 -10.654,-1.46824 -18.53333,-8.73118 -8.2644,-7.61785 -10.78693,-8.73118 -19.78499,-8.73118 -9.63428,0 -11.21161,-0.86204 -23.95277,-13.09677 -13.17718,-12.65335 -14.03083,-13.09677 -25.23856,-13.09677 h -11.5995 l -23.26041,-22.91934 -23.257,-22.91934 h -42.32574 -42.32576 l -23.25699,22.91934 -23.26042,22.91934 h -11.59949 c -11.20773,0 -12.0614,0.44342 -25.23859,13.09677 -12.74116,12.23473 -14.31847,13.09677 -23.95275,13.09677 -8.99806,0 -11.52058,1.11333 -19.78498,8.73118 -7.87933,7.26294 -10.99593,8.73118 -18.53331,8.73118 -7.2896,0 -10.71385,1.49363 -17.51693,7.63978 -6.81912,6.16065 -10.22012,7.63978 -17.56807,7.63978 -8.40957,0 -10.34747,-1.2343 -25.09873,-15.98557 -14.86503,-14.86503 -15.98214,-16.63581 -15.98214,-25.30336 0,-6.01471 -1.54822,-11.28857 -4.36559,-14.87029 -3.58469,-4.5572 -4.36559,-8.85532 -4.36559,-24.0278 0,-18.10344 0.15035,-18.6256 7.42149,-25.8968 z m -34.03455,17.46236 c -0.95058,0 -5.86186,4.21099 -10.91397,9.35872 l -9.18479,9.35873 v 70.01996 c 0,67.53029 0.1591,70.21984 4.52248,75.76684 2.4882,3.16325 5.43496,5.75374 6.54839,5.75374 1.17767,0 2.0259,-18.59317 2.0259,-44.45398 0,-41.14776 0.3246,-44.86576 4.36559,-50.00307 3.95482,-5.02771 4.3656,-8.85406 4.3656,-40.67501 0,-19.31938 -0.77862,-35.12593 -1.7292,-35.12593 z m 584.08181,0 c -0.9506,0 -1.7292,15.80655 -1.7292,35.12593 0,31.82095 0.4108,35.6473 4.3656,40.67501 4.041,5.13731 4.36559,8.85531 4.36559,50.00307 0,25.86078 0.84821,44.45397 2.0259,44.45397 1.1134,0 4.0601,-2.59048 6.5484,-5.75373 4.3632,-5.547 4.5224,-8.23655 4.5224,-75.76684 v -70.01996 l -9.1848,-9.35873 c -5.0521,-5.14773 -9.9633,-9.35872 -10.91389,-9.35872 z m -339.01875,39.2903 -38.17505,38.3592 c -30.49074,30.63814 -41.03109,39.82414 -52.36318,45.63063 -7.80349,3.99848 -18.11719,10.05963 -22.91935,13.46853 -8.20463,5.82422 -10.28389,6.24096 -34.49498,6.94061 l -25.76722,0.74351 -21.70857,-21.32999 -21.71197,-21.33 v 12.79322 12.79663 l 15.27956,15.75705 c 8.40376,8.66684 15.27956,16.95779 15.27956,18.42415 0,1.46635 -7.3049,10.16903 -16.23113,19.34161 -15.20572,15.62534 -16.27288,17.35619 -16.91665,27.41113 -0.38459,6.00646 -1.86813,11.11897 -3.36969,11.61316 -1.47559,0.48568 -8.10584,-4.243 -14.73388,-10.51152 -11.0596,-10.45972 -12.0497,-10.9635 -12.0497,-6.11865 0,3.69705 5.23321,10.48226 17.46236,22.63968 l 17.46236,17.36003 v 19.02441 19.02784 l 12.21682,11.58245 c 20.8545,19.7744 18.09875,20.20358 45.83869,-7.12135 13.3217,-13.12239 25.56174,-23.85728 27.19966,-23.85728 1.63796,0 18.30944,-15.22498 37.04954,-33.83331 l 34.07206,-33.83332 h 11.71546 11.71548 l 20.03395,-19.64515 20.03398,-19.64515 h 42.05973 42.05971 l 20.03396,19.64515 20.03398,19.64515 h 11.71545 11.71548 l 34.07206,33.83332 c 18.74008,18.60833 35.41156,33.83331 37.04956,33.83331 1.6379,0 13.8779,10.73489 27.1996,23.85728 27.74001,27.32493 24.9842,26.89575 45.83871,7.12135 l 12.2169,-11.58245 v -19.02784 -19.02441 l 17.4623,-17.36003 c 12.2292,-12.15742 17.4624,-18.94263 17.4624,-22.63968 0,-4.84485 -0.9901,-4.34107 -12.0497,6.11865 -6.6281,6.26852 -13.2583,10.99719 -14.7339,10.51152 -1.5016,-0.49419 -2.9851,-5.6067 -3.3697,-11.61316 -0.6438,-10.05494 -1.7109,-11.78579 -16.9166,-27.41113 -8.9263,-9.17258 -16.2312,-17.87526 -16.2312,-19.34161 0,-1.46636 6.8758,-9.75731 15.2796,-18.42415 l 15.2796,-15.75705 v -12.79663 -12.79322 l -21.712,21.33 -21.7086,21.32999 -25.7672,-0.74351 c -24.21113,-0.69965 -26.29034,-1.11639 -34.495,-6.94061 -4.80214,-3.4089 -15.11586,-9.47005 -22.91934,-13.46853 -11.3321,-5.80649 -21.87244,-14.99249 -52.36321,-45.63063 l -38.17503,-38.3592 H 512.00001 Z M 191.4634,552.38172 c -0.84264,0 -10.66256,9.9169 -21.82111,22.0394 -21.55061,23.41228 -25.70749,32.54551 -5.91742,13.00128 7.84434,-7.7469 12.92896,-11.18796 15.22499,-10.30688 1.89611,0.7276 3.44814,2.55259 3.44814,4.05863 0,3.6146 -26.35686,30.14303 -29.94862,30.14303 -2.20209,0 -2.7933,13.24015 -2.7933,62.70078 v 62.69736 l 14.72363,14.83959 14.72363,14.8362 1.58593,-6.11532 c 0.94348,-3.6409 11.19364,-15.58445 25.33066,-29.5154 l 23.74812,-23.40024 h 15.47737 c 8.51233,0 16.06896,-0.96209 16.79389,-2.13505 0.72493,-1.17296 -4.61873,-8.51563 -11.87576,-16.31639 L 236.96787,674.72737 V 652.5788 630.42687 l -17.46236,-17.8887 -17.46236,-17.89209 V 579.2642 c 0,-12.25628 -0.91775,-16.54951 -4.52249,-21.13217 -2.48819,-3.16326 -5.2146,-5.7503 -6.05726,-5.75031 z m 641.07321,0 c -0.8427,0 -3.5691,2.58704 -6.0573,5.7503 -3.6047,4.58265 -4.5224,8.8759 -4.5224,21.13217 v 15.38188 l -17.4624,17.89209 -17.4624,17.88871 v 22.15194 22.14856 l -13.1956,14.18133 c -7.2571,7.80077 -12.6007,15.14344 -11.8758,16.31639 0.7249,1.17296 8.2815,2.13505 16.7939,2.13505 h 15.4773 l 23.8368,23.46505 c 15.7033,15.45892 24.2624,25.57501 25.0851,29.64845 l 1.2483,6.18011 14.97261,-14.85331 14.9692,-14.85661 V 674.1305 c 0,-48.05899 -0.6278,-62.81332 -2.6705,-62.81332 -3.6065,0 -30.0714,-26.42016 -30.0714,-30.02025 0,-1.57305 1.552,-3.45381 3.44809,-4.18141 2.29611,-0.88108 7.38071,2.55998 15.22501,10.30688 19.7901,19.54423 15.6332,10.411 -5.91741,-13.00128 -11.1586,-12.1225 -20.9785,-22.0394 -21.8211,-22.0394 z M 187.3468,589.8371 c 1.40177,0.11788 2.33091,1.20335 3.06274,3.1105 0.90375,2.35512 -3.45208,8.27436 -13.6527,18.55376 -8.23876,8.30239 -15.61947,15.09538 -16.40507,15.09538 -0.7856,0 -2.69659,-1.52982 -4.24621,-3.39698 -2.41098,-2.90506 -0.64873,-5.58196 12.22365,-18.55375 10.56594,-10.64755 15.93371,-15.06808 19.01759,-14.80891 z m 649.30641,0 c 3.0839,-0.25917 8.4516,4.16136 19.0176,14.80891 12.8724,12.97179 14.6346,15.64869 12.2236,18.55375 -1.5496,1.86716 -3.45719,3.39698 -4.2428,3.39698 -0.7856,0 -8.1697,-6.79299 -16.4084,-15.09538 -10.2007,-10.27941 -14.5565,-16.19864 -13.6527,-18.55376 0.7318,-1.90715 1.6609,-2.99268 3.0627,-3.1105 z m -358.23755,6.20051 -22.18265,21.82795 -22.17924,21.82794 h -18.19564 -18.19566 l -21.10488,20.73656 -21.10831,20.73656 h -12.56812 c -10.85262,0 -13.58725,0.89406 -20.02715,6.54838 -5.98423,5.25421 -9.44839,6.54838 -17.53739,6.54838 -9.10384,0 -11.20239,1.05831 -21.6233,10.91398 l -11.53812,10.91396 h -18.10355 -18.10357 l -23.50255,23.42752 -23.49915,23.42747 v 27.30553 27.30868 l 59.4675,59.49478 c 40.84911,37.8739 19.11312,33.60146 19.11312,-0.4603 v -17.30206 l 22.48959,-22.48959 22.48621,-22.48629 h 44.54948 44.55288 l 9.35872,-9.18817 9.35875,-9.18485 v -16.36065 -16.36415 l 25.74674,-25.74676 25.75016,-25.74675 h 40.18048 40.18046 l 25.75017,25.74675 25.74674,25.74676 v 16.36415 16.36065 l 9.35872,9.18485 9.35875,9.18817 h 44.55288 44.54948 l 22.4896,22.48629 22.48621,22.48959 V 876.595 c -4.6761,38.52714 -37.06821,56.17321 19.08579,0.49103 l 59.4948,-59.46752 V 790.35417 763.093 l -23.4275,-23.50253 -23.4275,-23.49915 h -18.1752 -18.1786 l -11.5381,-10.91397 c -10.421,-9.85567 -12.5195,-10.91398 -21.6233,-10.91398 -8.089,0 -11.55319,-1.29417 -17.5374,-6.54838 -6.4399,-5.65432 -9.1746,-6.54838 -20.02717,-6.54838 h -12.56812 l -21.1083,-20.73656 -21.10491,-20.73655 h -18.19563 -18.19564 l -22.17925,-21.82795 -22.18264,-21.82794 h -33.58434 z m -286.65211,11.2482 c 1.36488,0.15385 2.28825,1.2358 3.01157,3.12072 0.89748,2.3388 -3.16148,7.98168 -12.55789,17.46236 -7.63534,7.70384 -14.52559,14.00741 -15.31367,14.00741 -0.78809,0 -2.70109,-1.5277 -4.24962,-3.39356 -2.40629,-2.89941 -0.78928,-5.43733 11.12884,-17.46236 9.83818,-9.92642 14.97805,-14.07298 17.98077,-13.73457 z m 640.47286,0 c 3.0028,-0.33841 8.1426,3.80814 17.9808,13.73456 11.9181,12.02503 13.53521,14.56295 11.12891,17.46236 -1.5485,1.86586 -3.4616,3.39356 -4.2497,3.39356 -0.7881,0 -7.6783,-6.30357 -15.3136,-14.00741 -9.3965,-9.48067 -13.4554,-15.12356 -12.5579,-17.46235 0.7233,-1.88492 1.6467,-2.96687 3.01149,-3.12072 z m -631.79284,13.11041 c 1.40177,0.11787 2.33091,1.20338 3.06273,3.1105 0.90376,2.35513 -3.45208,8.27436 -13.6527,18.55377 -8.23875,8.30239 -15.61947,15.09539 -16.40506,15.09539 -0.7856,0 -2.69659,-1.52983 -4.24621,-3.397 -2.41098,-2.90505 -0.64873,-5.58196 12.22364,-18.55375 10.56596,-10.64755 15.93371,-15.06807 19.0176,-14.80891 z m 623.11285,0 c 3.08389,-0.25916 8.45169,4.16136 19.0176,14.8089 12.87239,12.97179 14.63469,15.64871 12.2237,18.55375 -1.54961,1.86717 -3.4572,3.397 -4.2428,3.397 -0.78561,0 -8.1697,-6.793 -16.4085,-15.09539 -10.2006,-10.27941 -14.5565,-16.19864 -13.6527,-18.55376 0.7318,-1.90713 1.6609,-2.99268 3.0627,-3.1105 z m -618.6961,17.44872 c 1.36488,0.15384 2.28825,1.2358 3.01157,3.12071 0.89749,2.33879 -3.16148,7.98168 -12.5579,17.46236 -7.63533,7.70383 -14.52558,14.00742 -15.31366,14.00742 -0.78809,0 -2.70109,-1.52772 -4.24962,-3.39356 -2.40629,-2.89943 -0.78928,-5.43734 11.12883,-17.46237 9.83819,-9.92642 14.97806,-14.07298 17.98078,-13.73456 z m 614.2794,0 c 3.0027,-0.33842 8.1425,3.80814 17.98069,13.73456 11.9182,12.02502 13.5352,14.56294 11.12891,17.46237 -1.5485,1.86584 -3.4616,3.39356 -4.2497,3.39356 -0.788,0 -7.6783,-6.30359 -15.3136,-14.00742 -9.3964,-9.48068 -13.4554,-15.12357 -12.5579,-17.46236 0.7233,-1.88491 1.6467,-2.96687 3.0116,-3.12071 z m -605.59938,13.11041 c 1.40177,0.11788 2.3309,1.20337 3.06273,3.1105 0.90375,2.35512 -3.45208,8.27436 -13.6527,18.55375 -8.23875,8.30239 -15.61946,15.09539 -16.40505,15.09539 -0.7856,0 -2.6966,-1.52983 -4.24623,-3.39698 -2.41097,-2.90506 -0.64873,-5.58197 12.22365,-18.55376 10.56596,-10.64756 15.93371,-15.06808 19.0176,-14.8089 z m 596.91937,0 c 3.0839,-0.25917 8.4516,4.16135 19.0176,14.80891 12.8723,12.97179 14.6346,15.6487 12.2236,18.55376 -1.5496,1.86715 -3.45719,3.39698 -4.24279,3.39698 -0.78561,0 -8.16971,-6.793 -16.4085,-15.09539 -10.20061,-10.27941 -14.55641,-16.19864 -13.6527,-18.55375 0.7319,-1.90714 1.66099,-2.99269 3.06279,-3.11051 z m -592.50262,17.44873 c 1.36488,0.15384 2.28825,1.23579 3.01158,3.12072 0.89748,2.33878 -3.16149,7.98167 -12.55791,17.46235 -7.63534,7.70384 -14.52558,14.00741 -15.31366,14.00741 -0.78809,0 -2.70109,-1.52771 -4.24962,-3.39356 -2.4063,-2.89942 -0.78928,-5.43734 11.12883,-17.46236 9.83819,-9.92643 14.97806,-14.07298 17.98078,-13.73456 z m 588.08582,0 c 3.0027,-0.33842 8.1426,3.80813 17.98081,13.73456 11.9181,12.02501 13.53509,14.56294 11.12879,17.46235 -1.5485,1.86586 -3.4615,3.39356 -4.2496,3.39356 -0.78809,0 -7.6783,-6.30357 -15.3137,-14.00741 -9.3964,-9.48068 -13.4553,-15.12357 -12.5579,-17.46235 0.7233,-1.88493 1.6467,-2.96688 3.0116,-3.12071 z M 226.6371,681.51449 c 1.40177,0.11786 2.33091,1.20335 3.06275,3.1105 0.90374,2.35512 -3.45209,8.27436 -13.65271,18.55374 -8.23875,8.30239 -15.61946,15.09539 -16.40506,15.09539 -0.78559,0 -2.69659,-1.52982 -4.24622,-3.39698 -2.41097,-2.90506 -0.64873,-5.58197 12.22365,-18.55376 10.56596,-10.64755 15.93371,-15.06808 19.01759,-14.80889 z m 570.72582,0 c 3.0839,-0.25919 8.4516,4.16134 19.0176,14.80889 12.8724,12.97179 14.6346,15.6487 12.2236,18.55376 -1.5496,1.86716 -3.4572,3.39698 -4.2428,3.39698 -0.7856,0 -8.1697,-6.79299 -16.4084,-15.09539 -10.2007,-10.2794 -14.5565,-16.19864 -13.6527,-18.55374 0.7318,-1.90715 1.6609,-2.99269 3.0627,-3.1105 z m -316.94181,43.30802 -23.50255,23.42748 -23.49916,23.4275 v 15.85599 c 0,15.18929 -0.33664,16.22691 -7.99449,24.70313 l -7.99448,8.85062 10.72297,10.90367 10.723,10.90368 1.09139,-18.54346 c 1.01772,-17.29245 1.57023,-19.03659 8.18547,-25.8525 3.90175,-4.02 7.09409,-8.54939 7.09409,-10.06478 0,-1.51538 4.91129,-7.95026 10.91397,-14.2973 8.49562,-8.98281 10.91398,-13.11109 10.91398,-18.63897 0,-5.16571 2.02293,-9.1238 7.4215,-14.52238 7.36455,-7.36456 7.57558,-7.4215 27.50322,-7.4215 19.92761,0 20.13864,0.0569 27.50321,7.4215 5.39857,5.39858 7.4215,9.35667 7.4215,14.52238 0,5.52788 2.41835,9.65616 10.91397,18.63897 6.00268,6.34704 10.91397,12.70998 10.91397,14.137 0,1.42702 3.43789,6.39943 7.63977,11.05053 7.42816,8.22198 7.6398,8.95435 7.6398,26.43225 v 17.974 l 11.29254,-11.29255 11.29596,-11.29606 -8.02177,-8.87437 c -7.68014,-8.50103 -8.01835,-9.54754 -8.01835,-24.66226 v -15.7809 L 567.15308,748.32159 543.72556,724.8225 h -31.65393 z m -163.29692,106.57834 -16.06741,15.95832 -16.06742,15.96165 v 12.00537 c 0,11.89484 0.13534,12.14104 14.67588,26.7939 l 14.67589,14.78834 h 30.4261 c 22.4324,0 33.48239,-0.96394 42.06656,-3.6699 14.51199,-4.57443 18.59789,-9.04411 24.45412,-26.73573 4.47623,-13.52287 4.51437,-14.4508 1.00954,-25.56944 -2.34957,-7.45363 -6.63008,-14.46372 -12.09405,-19.80196 l -8.45834,-8.26057 -37.31212,-0.73673 z m 389.75162,0 -37.30872,0.73325 -37.31215,0.73673 -8.45833,8.26057 c -5.46398,5.33824 -9.74448,12.34833 -12.09404,19.80196 -3.50268,11.11183 -3.46659,12.05497 0.98566,25.56944 8.45685,25.67001 17.74565,29.98129 65.14961,30.23519 l 31.59598,0.17044 14.7884,-14.67589 c 14.725,-14.61216 14.7884,-14.7274 14.7884,-26.79372 v -12.118 l -16.0674,-15.96165 z M 363.56996,844.8762 c 12.89964,0 14.0519,0.44023 22.08374,8.47204 8.03185,8.03182 8.47539,9.18747 8.47539,22.08709 0,12.89961 -0.44354,14.05196 -8.47539,22.08377 -8.03184,8.03181 -9.1841,8.47536 -22.08374,8.47536 -12.89964,0 -14.0519,-0.44355 -22.08375,-8.47536 -8.03183,-8.03181 -8.47538,-9.18416 -8.47538,-22.08377 0,-12.89962 0.44355,-14.05527 8.47538,-22.08709 8.03185,-8.03181 9.18411,-8.47204 22.08375,-8.47204 z m 296.8601,0 c 12.89962,0 14.05188,0.44023 22.08372,8.47204 8.03183,8.03182 8.47543,9.18747 8.47543,22.08709 0,12.89961 -0.4436,14.05196 -8.47543,22.08377 -8.03184,8.03181 -9.18409,8.47536 -22.08372,8.47536 -12.89966,0 -14.05192,-0.44355 -22.08376,-8.47536 -8.03184,-8.03181 -8.47538,-9.18416 -8.47538,-22.08377 0,-12.89962 0.44354,-14.05527 8.47538,-22.08709 8.03185,-8.03181 9.1841,-8.47204 22.08376,-8.47204 z m -216.09669,3.60161 v 25.96845 25.96845 l -18.35593,18.06952 -18.35596,18.06935 h 8.03542 c 7.20004,0 9.99426,-1.97936 26.96775,-19.09945 17.57691,-17.72866 18.70712,-19.40592 15.77752,-23.3388 -2.06214,-2.76848 -3.15482,-9.6338 -3.15482,-19.80895 0,-13.78915 -0.62515,-16.15966 -5.45698,-20.699 z m 135.33328,0 -5.457,5.12957 c -4.83182,4.53934 -5.45698,6.90985 -5.45698,20.699 0,10.17515 -1.09269,17.04047 -3.15482,19.80895 -2.9296,3.93288 -1.79941,5.61014 15.77751,23.3388 16.97347,17.12009 19.76769,19.09945 26.96775,19.09945 h 8.0354 l -18.35593,-18.06935 -18.35593,-18.06952 v -25.96845 z"
    fill="#ffffff"/>
</svg>
